<svg width="40" height="40" viewBox="0 0 40 40" fill="none" xmlns="http://www.w3.org/2000/svg">
<rect width="40" height="40" fill="#F2F2F2"/>
<g clip-path="url(#clip0_0_312)">
<rect width="768" height="1024" transform="translate(-136 -804)" fill="white"/>
<g filter="url(#filter0_dd_0_312)">
<rect width="320" height="1024" transform="matrix(-1 0 0 1 184 -804)" fill="white"/>
</g>
<rect width="40" height="40" rx="20" fill="#FF3E79"/>
<path d="M20.5 19C22.9853 19 25 16.9853 25 14.5C25 12.0147 22.9853 10 20.5 10C18.0147 10 16 12.0147 16 14.5C16 16.9853 18.0147 19 20.5 19Z" fill="white"/>
<path d="M10.0166 26.6118C9.88693 27.3412 10.5352 28 11.339 28H28.6604C29.4902 28 30.1125 27.3412 29.9829 26.6118C29.2309 22.4 25.0561 20 19.9997 20C14.9433 20 10.7686 22.4 10.0166 26.6118Z" fill="white"/>
</g>
<defs>
<filter id="filter0_dd_0_312" x="-172" y="-856" width="424" height="1128" filterUnits="userSpaceOnUse" color-interpolation-filters="sRGB">
<feFlood flood-opacity="0" result="BackgroundImageFix"/>
<feColorMatrix in="SourceAlpha" type="matrix" values="0 0 0 0 0 0 0 0 0 0 0 0 0 0 0 0 0 0 127 0" result="hardAlpha"/>
<feOffset dx="16"/>
<feGaussianBlur stdDeviation="26"/>
<feColorMatrix type="matrix" values="0 0 0 0 0.0568147 0 0 0 0 0.0934795 0 0 0 0 0.314651 0 0 0 0.2 0"/>
<feBlend mode="normal" in2="BackgroundImageFix" result="effect1_dropShadow_0_312"/>
<feColorMatrix in="SourceAlpha" type="matrix" values="0 0 0 0 0 0 0 0 0 0 0 0 0 0 0 0 0 0 127 0" result="hardAlpha"/>
<feOffset dx="-2"/>
<feGaussianBlur stdDeviation="2"/>
<feColorMatrix type="matrix" values="0 0 0 0 0.272411 0 0 0 0 0.308786 0 0 0 0 0.496065 0 0 0 0.02 0"/>
<feBlend mode="normal" in2="effect1_dropShadow_0_312" result="effect2_dropShadow_0_312"/>
<feBlend mode="normal" in="SourceGraphic" in2="effect2_dropShadow_0_312" result="shape"/>
</filter>
<clipPath id="clip0_0_312">
<rect width="768" height="1024" fill="white" transform="translate(-136 -804)"/>
</clipPath>
</defs>
</svg>
